<?xml version="1.0" encoding="iso-8859-1"?>
<!-- Generator: Adobe Illustrator 19.0.0, SVG Export Plug-In . SVG Version: 6.00 Build 0)  -->
<svg version="1.1" id="Layer_1" xmlns="http://www.w3.org/2000/svg" xmlns:xlink="http://www.w3.org/1999/xlink" x="0px" y="0px"
	 viewBox="0 0 504.123 504.123" style="enable-background:new 0 0 504.123 504.123;" xml:space="preserve">
<polygon style="fill:#085BBF;" points="407.371,344.541 504.123,425.547 504.123,328.795 407.371,328.795 "/>
<path style="fill:#177ADD;" d="M504.123,334.954c0,16.329-13.249,29.578-29.586,29.578H223.09
	c-16.337,0-29.586-13.249-29.586-29.578v-133.12c0-16.337,13.249-29.586,29.586-29.586h251.447
	c16.337,0,29.586,13.249,29.586,29.586V334.954z"/>
<path style="fill:#1291F9;" d="M193.504,201.834c0-16.337,13.249-29.586,29.586-29.586h251.447"/>
<path style="fill:#085BBF;" d="M474.537,172.249c16.337,0,29.586,13.249,29.586,29.586v133.12c0,16.329-13.249,29.578-29.586,29.578
	H267.461"/>
<polygon style="fill:#9E1E00;" points="96.752,250.868 0,331.882 0,235.13 96.752,235.13 "/>
<path style="fill:#C63205;" d="M310.619,241.282c0,16.337-13.249,29.586-29.586,29.586H29.586C13.249,270.868,0,257.619,0,241.282
	v-133.12c0-16.337,13.249-29.586,29.586-29.586h251.447c16.337,0,29.586,13.249,29.586,29.586L310.619,241.282L310.619,241.282z"/>
<g>
	<path style="fill:#F94A28;" d="M0,108.162c0-16.337,13.249-29.586,29.586-29.586h251.447"/>
</g>
<path style="fill:#9E1E00;" d="M281.033,78.584c16.337,0,29.586,13.249,29.586,29.586v133.112c0,16.337-13.249,29.586-29.586,29.586
	H73.941"/>
<path style="fill:#362272;" d="M223.09,172.249c-16.337,0-29.586,13.249-29.586,29.586v69.033h87.521
	c16.337,0,29.586-13.249,29.586-29.586v-69.033H223.09z"/>
<path style="fill:#6045B5;" d="M310.619,172.249H223.09c-16.337,0-29.586,13.249-29.586,29.586l117.106-12.32v-17.266H310.619z"/>
<g>
	<path style="fill:#FFFFFF;" d="M155.924,218.014c-6.814,0-12.351,5.608-12.351,12.509s5.537,12.516,12.351,12.516
		c6.829,0,12.359-5.616,12.359-12.516C168.283,223.74,162.627,218.014,155.924,218.014z"/>
	<path style="fill:#FFFFFF;" d="M154.695,114.33c-20.283,0-34.997,15.045-34.997,35.777c0,1.174,0.953,2.119,2.127,2.119h15.195
		c1.174,0,2.135-0.937,2.135-2.119c0-8.35,5.341-16.794,15.557-16.794c9.539,0,16.479,6.861,16.479,16.321
		c0,7.751-4.773,13.328-10.327,19.787c-6.569,7.664-14.021,16.352-14.021,30.46c0,1.166,0.945,2.127,2.127,2.127h15.053
		c1.15,0,2.119-0.953,2.119-2.127c0-9.287,5.427-15.336,11.185-21.74c6.396-7.097,13.611-15.163,13.611-28.507
		C190.905,129.501,175.348,114.33,154.695,114.33z"/>
	<circle style="fill:#FFFFFF;" cx="297.196" cy="268.394" r="10.634"/>
	<circle style="fill:#FFFFFF;" cx="348.05" cy="268.394" r="10.634"/>
	<circle style="fill:#FFFFFF;" cx="398.887" cy="268.394" r="10.634"/>
</g>
<g>
</g>
<g>
</g>
<g>
</g>
<g>
</g>
<g>
</g>
<g>
</g>
<g>
</g>
<g>
</g>
<g>
</g>
<g>
</g>
<g>
</g>
<g>
</g>
<g>
</g>
<g>
</g>
<g>
</g>
</svg>
