<?xml version="1.0" encoding="iso-8859-1"?>
<!-- Generator: Adobe Illustrator 19.0.0, SVG Export Plug-In . SVG Version: 6.00 Build 0)  -->
<svg version="1.1" id="Layer_1" xmlns="http://www.w3.org/2000/svg" xmlns:xlink="http://www.w3.org/1999/xlink" x="0px" y="0px"
	 viewBox="0 0 512 512" style="enable-background:new 0 0 512 512;" xml:space="preserve">
<path style="fill:#167EE6;" d="M41.229,122.435c0,12.591,0,341.254,0,353.844C41.229,496.043,57.184,512,76.95,512h179.022h179.022
	c19.764,0,35.722-15.955,35.722-35.721c0-12.591,0-341.254,0-353.844c-4.619,0-107.809-122.036-107.809-122.036H153.452
	C153.452,0.398,45.847,122.435,41.229,122.435z"/>
<path style="fill:#2860CC;" d="M434.994,512c19.764,0,35.722-15.955,35.722-35.721c0-12.591,0-274.471,0-287.062
	c-9.423,0-112.066,0-214.716,0V512H434.994z"/>
<path style="fill:#E6F3FF;" d="M367.304,478.609c-36.815,0-66.783-29.968-66.783-66.783s29.968-66.783,66.783-66.783
	c9.032,0,17.804,1.793,26.022,5.283c8.478,3.62,12.424,13.434,8.804,21.914c-3.62,8.446-13.402,12.424-21.914,8.804
	c-4.043-1.729-8.412-2.609-12.912-2.609c-18.424,0-33.391,14.967-33.391,33.391c0,18.424,14.967,33.391,33.391,33.391
	c12.326,0,23.119-6.717,28.924-16.696H384c-9.228,0-16.696-7.467-16.696-16.696c0-9.228,7.467-16.696,16.696-16.696h33.391
	c9.228,0,16.696,7.467,16.696,16.696C434.087,448.641,404.119,478.609,367.304,478.609z"/>
<path style="fill:#1470CC;" d="M444.487,19.765l61.559,194.56l-59.159,2.226l-59.911-2.226L351.255,0h61.321
	C426.032,0,438.414,7.621,444.487,19.765z"/>
<path style="fill:#2354B3;" d="M386.976,214.325h119.07c0,31.454-25.269,59.534-59.534,59.534
	C413.648,273.861,386.976,247.189,386.976,214.325z"/>
<polygon style="fill:#3199FF;" points="351.255,0 386.976,214.325 320.557,216.551 256,214.325 256,0 "/>
<path style="fill:#167EE6;" d="M386.976,214.325c0,32.864-29.291,59.534-65.488,59.534S256,247.189,256,214.325H386.976z"/>
<polygon style="fill:#1470CC;" points="256,0 256,214.325 191.443,216.551 125.024,214.325 160.745,0 "/>
<path style="fill:#2354B3;" d="M256,214.325c0,32.864-29.291,59.534-65.488,59.534s-65.488-26.672-65.488-59.534L256,214.325
	L256,214.325z"/>
<path style="fill:#3199FF;" d="M160.745,0l-35.721,214.325l-63.25,2.226l-55.82-2.226l61.559-194.56C73.586,7.621,85.968,0,99.424,0
	H160.745z"/>
<path style="fill:#167EE6;" d="M125.024,214.325c0,32.864-26.672,59.534-59.534,59.534c-32.75,0-59.534-26.679-59.534-59.534
	L125.024,214.325L125.024,214.325z"/>
<g>
</g>
<g>
</g>
<g>
</g>
<g>
</g>
<g>
</g>
<g>
</g>
<g>
</g>
<g>
</g>
<g>
</g>
<g>
</g>
<g>
</g>
<g>
</g>
<g>
</g>
<g>
</g>
<g>
</g>
</svg>
