<?xml version="1.0" encoding="iso-8859-1"?>
<!-- Generator: Adobe Illustrator 19.0.0, SVG Export Plug-In . SVG Version: 6.00 Build 0)  -->
<svg version="1.1" id="Layer_1" xmlns="http://www.w3.org/2000/svg" xmlns:xlink="http://www.w3.org/1999/xlink" x="0px" y="0px"
	 viewBox="0 0 512 512" style="enable-background:new 0 0 512 512;" xml:space="preserve">
<g>
	<path style="fill:#FFFFFF;" d="M24,167.632h143.632V24H24V167.632z M55.376,55.376h80.864v80.864H55.376V55.376z"/>
	<path style="fill:#FFFFFF;" d="M487.008,24H343.376v143.632h143.632V24z M455.616,136.24h-80.864V55.376h80.864L455.616,136.24
		L455.616,136.24z"/>
	<path style="fill:#FFFFFF;" d="M24,488h143.632V344.368H24V488z M55.376,375.76h80.864v80.864H55.376V375.76z"/>
</g>
<path d="M191.632,0H0v191.632h191.632V0z M167.632,167.632H24V24h143.632V167.632z"/>
<rect x="55.376" y="55.376" style="fill:#ED1C24;" width="80.8" height="80.8"/>
<path d="M319.376,191.632h191.632V0H319.376V191.632z M343.376,24h143.632v143.632H343.376L343.376,24L343.376,24z"/>
<rect x="374.752" y="55.376" style="fill:#ED1C24;" width="80.8" height="80.8"/>
<path d="M191.632,320.368H0V512h191.632V320.368z M167.632,488H24V344.368h143.632V488z"/>
<rect x="55.376" y="375.76" style="fill:#ED1C24;" width="80.8" height="80.8"/>
<polygon points="512,348.912 418.416,348.912 418.416,348.944 367.712,348.944 367.712,417.344 350.208,417.344 350.208,349.2 
	279.36,349.2 279.36,398.176 238.912,398.176 238.912,512 262.912,512 262.912,422.176 303.36,422.176 303.36,373.2 326.208,373.2 
	326.208,441.344 391.712,441.344 391.712,372.944 418.416,372.944 418.416,442.496 512,442.496 "/>
<polygon style="fill:#ED1C24;" points="118.464,247.296 205.168,247.296 205.168,305.824 310.08,305.824 310.08,243.04 
	356.336,243.04 356.336,305.824 511.008,305.824 511.008,281.824 380.336,281.824 380.336,219.04 286.08,219.04 286.08,281.824 
	229.168,281.824 229.168,223.296 94.464,223.296 94.464,256.288 0,256.288 0,280.288 118.464,280.288 "/>
<rect x="247.76" width="24" height="46.848"/>
<rect x="247.76" y="74.512" width="24" height="70.272"/>
<rect x="407.664" y="464.96" width="104.336" height="24"/>
<g>
</g>
<g>
</g>
<g>
</g>
<g>
</g>
<g>
</g>
<g>
</g>
<g>
</g>
<g>
</g>
<g>
</g>
<g>
</g>
<g>
</g>
<g>
</g>
<g>
</g>
<g>
</g>
<g>
</g>
</svg>
