<?xml version="1.0" encoding="iso-8859-1"?>
<!-- Generator: Adobe Illustrator 19.0.0, SVG Export Plug-In . SVG Version: 6.00 Build 0)  -->
<svg version="1.1" id="Layer_1" xmlns="http://www.w3.org/2000/svg" xmlns:xlink="http://www.w3.org/1999/xlink" x="0px" y="0px"
	 viewBox="0 0 512 512" style="enable-background:new 0 0 512 512;" xml:space="preserve">
<path style="fill:#DB2B42;" d="M349.96,244.248H162.04v192.92h48.656v67.512l81.176-67.512H512V200.24H349.96V244.248z
	 M439.416,361.456h-204.8v-10.24h204.8V361.456z M439.416,332.976h-204.8v-10.24h204.8V332.976z M439.416,304.496h-204.8v-10.24
	h204.8V304.496z"/>
<path style="fill:#8AD5DD;" d="M349.96,200.24V7.32H0v236.928h48.656v67.512l81.176-67.512h32.208h187.928V200.24H349.96z
	 M261.72,129.4c-14.984-5.312-24.256-13.08-24.256-26.016c0-14.304,11.856-24.928,29.696-24.928c9.408,0,16.208,2.184,20.296,4.496
	l-3.264,9.672c-3-1.64-9.136-4.36-17.44-4.36c-12.528,0-17.304,7.496-17.304,13.76c0,8.584,5.576,12.808,18.248,17.704
	c15.536,6,23.432,13.488,23.432,26.976c0,14.16-10.48,26.424-32.152,26.424c-8.856,0-18.512-2.584-23.424-5.864l2.992-9.944
	c5.312,3.272,13.072,6,21.248,6c12.128,0,19.2-6.4,19.2-15.664C279.016,139.072,274.12,134.168,261.72,129.4z M84.976,129.4
	c-14.984-5.312-24.256-13.08-24.256-26.016c0-14.304,11.856-24.928,29.696-24.928c9.408,0,16.208,2.184,20.296,4.496l-3.264,9.672
	c-3-1.64-9.136-4.36-17.44-4.36c-12.528,0-17.304,7.496-17.304,13.76c0,8.584,5.576,12.808,18.248,17.704
	c15.536,6,23.432,13.488,23.432,26.976c0,14.16-10.48,26.424-32.152,26.424c-8.856,0-18.512-2.584-23.424-5.864l2.992-9.944
	c5.312,3.272,13.072,6,21.248,6c12.128,0,19.2-6.4,19.2-15.664C102.272,139.072,97.376,134.168,84.976,129.4z M143.984,91.8h-0.272
	c-0.272,11.44-0.96,26.832-1.776,40.592l-2.456,39.368h-11.304l6.4-91.808h15.128l15.656,44.408
	c3.816,11.304,6.952,21.384,9.272,30.928h0.408c2.32-9.264,5.576-19.352,9.672-30.928l16.344-44.408h15.12l5.728,91.808H210.32
	L208,131.44c-0.672-12.8-1.496-28.2-1.36-39.64h-0.4c-3.136,10.76-6.952,22.2-11.576,34.872l-16.208,44.544h-9l-14.84-43.736
	C150.248,114.544,146.568,102.696,143.984,91.8z"/>
<g>
	<path style="fill:#FFFFFF;" d="M83.064,163.312c-8.176,0-15.944-2.72-21.248-6l-2.992,9.944c4.904,3.272,14.568,5.864,23.424,5.864
		c21.664,0,32.152-12.264,32.152-26.424c0-13.488-7.896-20.976-23.432-26.976c-12.664-4.896-18.248-9.12-18.248-17.704
		c0-6.264,4.768-13.76,17.304-13.76c8.304,0,14.432,2.72,17.44,4.36l3.264-9.672c-4.08-2.312-10.888-4.496-20.296-4.496
		c-17.84,0-29.696,10.624-29.696,24.928c0,12.944,9.272,20.704,24.256,26.016c12.4,4.768,17.288,9.672,17.288,18.248
		C102.272,156.912,95.192,163.312,83.064,163.312z"/>
	<path style="fill:#FFFFFF;" d="M178.456,171.224l16.208-44.544c4.624-12.672,8.44-24.112,11.576-34.872h0.408
		c-0.136,11.44,0.688,26.832,1.36,39.64l2.32,40.32h11.584l-5.728-91.816h-15.12L184.72,124.36
		c-4.096,11.576-7.36,21.664-9.672,30.928h-0.408c-2.32-9.544-5.456-19.616-9.272-30.928l-15.656-44.408h-15.128l-6.4,91.808h11.304
		l2.456-39.368c0.824-13.76,1.512-29.152,1.776-40.592h0.272c2.584,10.896,6.264,22.744,10.632,35.688l14.84,43.736L178.456,171.224
		L178.456,171.224z"/>
	<path style="fill:#FFFFFF;" d="M259.808,163.312c-8.176,0-15.944-2.72-21.248-6l-2.992,9.944
		c4.904,3.272,14.568,5.864,23.424,5.864c21.664,0,32.152-12.264,32.152-26.424c0-13.488-7.896-20.976-23.432-26.976
		c-12.664-4.896-18.248-9.12-18.248-17.704c0-6.264,4.768-13.76,17.304-13.76c8.304,0,14.432,2.72,17.44,4.36l3.264-9.672
		c-4.08-2.312-10.888-4.496-20.296-4.496c-17.84,0-29.696,10.624-29.696,24.928c0,12.944,9.272,20.704,24.256,26.016
		c12.4,4.768,17.288,9.672,17.288,18.248C279.016,156.912,271.936,163.312,259.808,163.312z"/>
	<rect x="234.616" y="294.256" style="fill:#FFFFFF;" width="204.8" height="10.24"/>
	<rect x="234.616" y="322.76" style="fill:#FFFFFF;" width="204.8" height="10.24"/>
	<rect x="234.616" y="351.216" style="fill:#FFFFFF;" width="204.8" height="10.24"/>
</g>
<g>
</g>
<g>
</g>
<g>
</g>
<g>
</g>
<g>
</g>
<g>
</g>
<g>
</g>
<g>
</g>
<g>
</g>
<g>
</g>
<g>
</g>
<g>
</g>
<g>
</g>
<g>
</g>
<g>
</g>
</svg>
