<?xml version="1.0" encoding="iso-8859-1"?>
<!-- Generator: Adobe Illustrator 19.0.0, SVG Export Plug-In . SVG Version: 6.00 Build 0)  -->
<svg version="1.1" id="Layer_1" xmlns="http://www.w3.org/2000/svg" xmlns:xlink="http://www.w3.org/1999/xlink" x="0px" y="0px"
	 viewBox="0 0 291.775 291.775" style="enable-background:new 0 0 291.775 291.775;" xml:space="preserve">
<g>
	<path style="fill:#E4E7E7;" d="M27.353,36.476h237.059v237.059H27.353V36.476z"/>
	<path style="fill:#B6B9B9;" d="M27.353,118.535h237.059v18.235H27.353V118.535z"/>
	<path style="fill:#CCD0D2;" d="M45.771,18.241h199.968l18.7,18.199H27.335L45.771,18.241z"/>
	<g>
		<path style="fill:#26A6D1;" d="M45.588,255.3h54.706V118.535H45.588V255.3z M118.529,255.3h54.706V118.535h-54.706V255.3z
			 M191.471,118.535V255.3h54.706V118.535H191.471z"/>
	</g>
	<path style="fill:#E4E7E7;" d="M291.701,91.1l-29.259-27.289H29.35L0.073,91.1H0v18.263c0,5.042,4.094,9.136,9.118,9.136h273.529
		c5.042,0,9.118-4.094,9.118-9.136V91.1H291.701z"/>
	<g>
		<rect x="164.118" y="227.947" style="fill:#2295BC;" width="9.118" height="27.353"/>
		<polygon style="fill:#2295BC;" points="82.059,209.711 82.059,182.359 45.588,182.359 45.588,255.3 100.294,255.3 
			100.294,209.711 		"/>
		<rect x="118.529" y="209.711" style="fill:#2295BC;" width="18.235" height="45.588"/>
		<polygon style="fill:#2295BC;" points="200.588,182.359 200.588,227.947 191.471,227.947 191.471,255.3 237.059,255.3 
			246.176,255.3 246.176,182.359 		"/>
	</g>
	<g>
		<rect x="45.588" y="118.535" style="fill:#2295BC;" width="54.706" height="18.235"/>
		<rect x="191.471" y="118.535" style="fill:#2295BC;" width="54.706" height="18.235"/>
		<rect x="118.529" y="118.535" style="fill:#2295BC;" width="54.706" height="18.235"/>
	</g>
	<g>
		<path style="fill:#419687;" d="M63.824,218.829H27.353c-10.066,0-18.235,8.169-18.235,18.235v18.235
			c0,10.075,8.169,18.235,18.235,18.235h36.471c10.075,0,18.235-8.16,18.235-18.235v-18.235
			C82.059,226.999,73.908,218.829,63.824,218.829z M264.412,218.829h-36.471c-10.066,0-18.235,8.169-18.235,18.235v18.235
			c0,10.075,8.169,18.235,18.235,18.235h36.471c10.075,0,18.235-8.16,18.235-18.235v-18.235
			C282.647,226.999,274.496,218.829,264.412,218.829z"/>
	</g>
	<g>
		<path style="fill:#51BBA8;" d="M264.412,218.829h-36.471c-2.671,0-5.188,0.602-7.476,1.641c-1.03,2.289-1.641,4.805-1.641,7.476
			v18.235c0,10.075,8.169,18.235,18.235,18.235h36.471c2.671,0,5.188-0.602,7.476-1.641c1.03-2.289,1.641-4.805,1.641-7.476v-18.235
			C282.647,226.999,274.496,218.829,264.412,218.829z"/>
		<path style="fill:#51BBA8;" d="M63.824,218.829H27.353c-2.671,0-5.188,0.602-7.476,1.641c-1.03,2.289-1.641,4.805-1.641,7.476
			v18.235c0,10.075,8.169,18.235,18.235,18.235h36.471c2.671,0,5.188-0.602,7.476-1.641c1.03-2.289,1.641-4.805,1.641-7.476v-18.235
			C82.059,226.999,73.908,218.829,63.824,218.829z"/>
	</g>
	<polygon style="fill:#C2C5C5;" points="262.461,63.829 29.331,63.829 0.073,91.1 0,91.1 0,91.182 291.765,91.182 291.765,91.1 
		291.701,91.1 	"/>
	<g>
		<polygon style="fill:#E2574C;" points="100.294,63.829 91.176,91.182 91.176,118.499 109.412,118.499 109.412,91.182 
			118.529,63.829 		"/>
		<path style="fill:#E2574C;" d="M291.701,91.1l-29.24-27.271h-16.275l27.353,27.353v27.316h9.118c5.042,0,9.118-4.094,9.118-9.136
			v-18.18L291.72,91.1H291.701z"/>
		<polygon style="fill:#E2574C;" points="209.706,63.829 227.941,91.182 227.941,118.499 246.176,118.499 246.176,91.182 
			227.941,63.829 		"/>
		<polygon style="fill:#E2574C;" points="63.824,63.829 45.588,91.182 45.588,118.499 63.824,118.499 63.824,91.182 82.059,63.829 
					"/>
		<path style="fill:#E2574C;" d="M9.118,118.499h9.118V91.182l27.353-27.353H29.331L0.073,91.1H0.055L0,91.182v18.181
			C0,114.405,4.103,118.499,9.118,118.499z"/>
		<rect x="136.765" y="63.829" style="fill:#E2574C;" width="18.235" height="54.669"/>
		<polygon style="fill:#E2574C;" points="200.588,118.499 200.588,91.182 191.471,63.829 173.235,63.829 182.353,91.182 
			182.353,118.499 		"/>
	</g>
	<g>
		<polygon style="fill:#C04A40;" points="63.824,63.829 45.588,91.182 63.824,91.182 82.059,63.829 		"/>
		<polygon style="fill:#C04A40;" points="291.701,91.1 262.461,63.829 246.176,63.829 273.529,91.182 291.765,91.182 291.719,91.1 
					"/>
		<rect x="136.765" y="63.829" style="fill:#C04A40;" width="18.235" height="27.353"/>
		<polygon style="fill:#C04A40;" points="100.294,63.829 91.176,91.182 109.412,91.182 118.529,63.829 		"/>
		<polygon style="fill:#C04A40;" points="209.706,63.829 227.941,91.182 246.176,91.182 227.941,63.829 		"/>
		<polygon style="fill:#C04A40;" points="173.235,63.829 182.353,91.182 200.588,91.182 191.471,63.829 		"/>
	</g>
	<polygon style="fill:#C04A40;" points="45.588,63.829 29.331,63.829 0.073,91.1 0.055,91.1 0,91.182 18.235,91.182 	"/>
</g>
<g>
</g>
<g>
</g>
<g>
</g>
<g>
</g>
<g>
</g>
<g>
</g>
<g>
</g>
<g>
</g>
<g>
</g>
<g>
</g>
<g>
</g>
<g>
</g>
<g>
</g>
<g>
</g>
<g>
</g>
</svg>
